<?xml version="1.0" encoding="UTF-8" standalone="no"?>
<!DOCTYPE svg PUBLIC "-//W3C//DTD SVG 1.1//EN"
 "http://www.w3.org/Graphics/SVG/1.1/DTD/svg11.dtd">
<!-- Generated by graphviz version 2.50.0 (0)
 -->
<!-- Title: diagram_out Pages: 1 -->
<svg width="570pt" height="113pt"
 viewBox="0.00 0.00 569.87 113.09" xmlns="http://www.w3.org/2000/svg" xmlns:xlink="http://www.w3.org/1999/xlink">
<g id="graph0" class="graph" transform="scale(1 1) rotate(0) translate(4 109.09)">
<title>diagram_out</title>
<polygon fill="white" stroke="transparent" points="-4,4 -4,-109.09 565.87,-109.09 565.87,4 -4,4"/>
<!-- source -->
<g id="node1" class="node">
<title>source</title>
<ellipse fill="none" stroke="black" cx="33.8" cy="-33.8" rx="33.6" ry="33.6"/>
<text text-anchor="middle" x="33.8" y="-30.1" font-family="Times,serif" font-size="14.00">source</text>
</g>
<!-- Kate -->
<g id="node2" class="node">
<title>Kate</title>
<ellipse fill="none" stroke="black" cx="161.89" cy="-77.8" rx="27.1" ry="27.1"/>
<text text-anchor="middle" x="161.89" y="-74.1" font-family="Times,serif" font-size="14.00">Kate</text>
</g>
<!-- source&#45;&gt;Kate -->
<g id="edge1" class="edge">
<title>source&#45;&gt;Kate</title>
<path fill="none" stroke="black" d="M65.97,-44.67C84.27,-51.06 107.43,-59.14 126.29,-65.72"/>
<polygon fill="black" stroke="black" points="125.39,-69.12 135.99,-69.11 127.7,-62.51 125.39,-69.12"/>
<text text-anchor="middle" x="101.09" y="-65.6" font-family="Times,serif" font-size="14.00">10/10</text>
</g>
<!-- Ann -->
<g id="node3" class="node">
<title>Ann</title>
<ellipse fill="none" stroke="black" cx="284.19" cy="-33.8" rx="26" ry="26"/>
<text text-anchor="middle" x="284.19" y="-30.1" font-family="Times,serif" font-size="14.00">Ann</text>
</g>
<!-- source&#45;&gt;Ann -->
<g id="edge2" class="edge">
<title>source&#45;&gt;Ann</title>
<path fill="none" stroke="black" d="M67.58,-30.92C87.04,-29.35 112.2,-27.58 134.59,-26.8 158.84,-25.95 164.94,-25.9 189.19,-26.8 208.55,-27.52 230.12,-29.07 247.7,-30.53"/>
<polygon fill="black" stroke="black" points="247.82,-34.05 258.08,-31.42 248.42,-27.08 247.82,-34.05"/>
<text text-anchor="middle" x="161.89" y="-30.6" font-family="Times,serif" font-size="14.00">10/10</text>
</g>
<!-- Kate&#45;&gt;Ann -->
<g id="edge4" class="edge">
<title>Kate&#45;&gt;Ann</title>
<path fill="none" stroke="black" d="M187.82,-68.68C205.83,-62.09 230.36,-53.12 250.02,-45.93"/>
<polygon fill="black" stroke="black" points="251.33,-49.18 259.52,-42.45 248.93,-42.6 251.33,-49.18"/>
<text text-anchor="middle" x="223.69" y="-64.6" font-family="Times,serif" font-size="14.00">10/inf</text>
</g>
<!-- John -->
<g id="node4" class="node">
<title>John</title>
<ellipse fill="none" stroke="black" cx="406.48" cy="-33.8" rx="27.1" ry="27.1"/>
<text text-anchor="middle" x="406.48" y="-30.1" font-family="Times,serif" font-size="14.00">John</text>
</g>
<!-- Ann&#45;&gt;John -->
<g id="edge5" class="edge">
<title>Ann&#45;&gt;John</title>
<path fill="none" stroke="black" d="M310.4,-33.8C327.38,-33.8 350.03,-33.8 368.97,-33.8"/>
<polygon fill="black" stroke="black" points="369.05,-37.3 379.05,-33.8 369.05,-30.3 369.05,-37.3"/>
<text text-anchor="middle" x="344.68" y="-37.6" font-family="Times,serif" font-size="14.00">20/inf</text>
</g>
<!-- target -->
<g id="node5" class="node">
<title>target</title>
<ellipse fill="none" stroke="black" cx="531.33" cy="-33.8" rx="30.59" ry="30.59"/>
<text text-anchor="middle" x="531.33" y="-30.1" font-family="Times,serif" font-size="14.00">target</text>
</g>
<!-- John&#45;&gt;target -->
<g id="edge3" class="edge">
<title>John&#45;&gt;target</title>
<path fill="none" stroke="black" d="M433.84,-33.8C450.3,-33.8 471.81,-33.8 490.34,-33.8"/>
<polygon fill="black" stroke="black" points="490.57,-37.3 500.57,-33.8 490.57,-30.3 490.57,-37.3"/>
<text text-anchor="middle" x="467.28" y="-37.6" font-family="Times,serif" font-size="14.00">20/20</text>
</g>
</g>
</svg>
